<svg id="Layer_1" enable-background="new 0 0 256 256" height="512" viewBox="0 0 256 256" width="512" xmlns="http://www.w3.org/2000/svg"><g><g><path d="m16.765 104.797h222.469v147.203h-222.469z" fill="#f4efed"/></g><g><path d="m16.765 104.797 111.235 100.798 111.234-100.798z" fill="#526faa"/></g><g><path d="m239.234 104.797-111.234-100.797-111.235 100.797z" fill="#f4efed"/></g><g><path d="m230.264 112.926v133.138l8.97 5.936v-147.203z" fill="#d6d1cf"/></g><g><path d="m16.765 104.797v147.203l8.971-5.936v-133.138z" fill="#fff"/></g><g><path d="m128 207.595c-.481 0-.962-.173-1.343-.518l-111.234-100.798c-.613-.555-.821-1.43-.523-2.202.298-.771 1.04-1.28 1.866-1.28h222.469c.827 0 1.568.509 1.866 1.28.297.771.089 1.646-.523 2.202l-111.235 100.798c-.381.345-.862.518-1.343.518zm-106.049-100.798 106.049 96.099 106.049-96.098h-212.098z" fill="#690589"/></g><g><path d="m239.234 106.797h-222.468c-.827 0-1.568-.509-1.866-1.28-.297-.771-.089-1.646.523-2.202l111.234-100.797c.762-.69 1.924-.69 2.686 0l111.234 100.797c.613.555.821 1.43.523 2.202-.297.772-1.039 1.28-1.866 1.28zm-217.283-4h212.098l-106.049-96.098z" fill="#690589"/></g><g><path d="m239.234 254h-222.468c-1.104 0-2-.896-2-2v-147.203c0-1.104.896-2 2-2h222.469c1.104 0 2 .896 2 2v147.203c-.001 1.104-.896 2-2.001 2zm-220.468-4h218.469v-143.203h-218.469z" fill="#690589"/></g><g><path d="m24.971 146.242c-1.104 0-2-.896-2-2v-12c0-1.104.896-2 2-2s2 .896 2 2v12c0 1.105-.895 2-2 2z" fill="#690589"/></g><g><path d="m16.765 252 111.235-73.601 111.234 73.601z" fill="#f4efed"/></g><g><path d="m239.234 254h-222.468c-.883 0-1.661-.579-1.915-1.424s.075-1.757.812-2.244l111.234-73.601c.669-.442 1.538-.442 2.207 0l111.234 73.601c.736.487 1.066 1.399.812 2.244s-1.033 1.424-1.916 1.424zm-215.821-4h209.175l-104.588-69.203z" fill="#690589"/></g><g><path d="m193.07 84.698c0-35.938-29.133-65.071-65.07-65.071s-65.07 29.133-65.07 65.071c0 32.097 23.246 58.748 53.817 64.081l3.059 5.298 8.194 14.192 8.194-14.193 3.059-5.298c30.571-5.333 53.817-31.983 53.817-64.08z" fill="#fcc24c"/></g><g><g><path d="m128 19.627c-1.909 0-3.794.1-5.661.261 34.409 2.911 61.433 31.744 61.433 66.905 0 26.634-15.513 49.624-37.989 60.48 27.288-7.738 47.288-32.808 47.288-62.576-.001-35.937-29.134-65.07-65.071-65.07z" fill="#dea42e"/></g></g><g><g><path d="m128 19.627c1.909 0 3.794.1 5.661.261-34.409 2.911-61.433 31.744-61.433 66.905 0 26.634 15.513 49.624 37.989 60.48-27.287-7.737-47.287-32.807-47.287-62.575 0-35.938 29.133-65.071 65.07-65.071z" fill="#fce06a"/></g></g><g><path d="m90.797 93.472h6.345v-25.713h-6.345c-7.101 0-12.857 5.756-12.857 12.857 0 7.1 5.756 12.856 12.857 12.856z" fill="#f4efed"/></g><g><path d="m133.318 65.958 33.414-17.705v64.726l-33.414-17.706z" fill="#f4efed"/></g><g><path d="m115.23 131.559c-3.112 0-5.635-2.523-5.635-5.635v-41.213h11.271v41.213c-.001 3.112-2.524 5.635-5.636 5.635z" fill="#f4efed"/></g><g><path d="m115.23 133.559c-4.21 0-7.635-3.425-7.635-7.635v-41.213c0-1.104.896-2 2-2h11.271c1.104 0 2 .896 2 2v41.212c-.001 4.21-3.426 7.636-7.636 7.636zm-3.635-46.848v39.212c0 2.004 1.631 3.635 3.635 3.635s3.635-1.631 3.635-3.635v-39.212z" fill="#690589"/></g><g><path d="m127.999 99.765h-25.539c-2.937 0-5.319-2.381-5.319-5.319v-27.661c0-2.938 2.381-5.319 5.319-5.319h25.539c2.937 0 5.319 2.381 5.319 5.319v27.661c0 2.938-2.381 5.319-5.319 5.319z" fill="#8852a8"/></g><g><path d="m169.032 87.561h-2.3v-13.89h2.3c3.836 0 6.945 3.109 6.945 6.945 0 3.835-3.11 6.945-6.945 6.945z" fill="#f4efed"/></g><g><path d="m169.032 89.561h-2.3c-1.104 0-2-.896-2-2v-13.89c0-1.104.896-2 2-2h2.3c4.932 0 8.945 4.013 8.945 8.945s-4.013 8.945-8.945 8.945zm-.301-4h.3c2.727 0 4.945-2.218 4.945-4.945s-2.218-4.945-4.945-4.945h-.3z" fill="#690589"/></g><g><path d="m166.731 114.979c-.321 0-.643-.077-.937-.233l-33.414-17.705c-.654-.347-1.063-1.026-1.063-1.767v-29.316c0-.741.409-1.42 1.063-1.767l33.414-17.706c.62-.329 1.367-.309 1.968.054.601.361.969 1.012.969 1.713v64.726c0 .702-.368 1.352-.969 1.713-.316.192-.673.288-1.031.288zm-31.413-20.909 29.414 15.585v-58.079l-29.414 15.586z" fill="#690589"/></g><g><path d="m97.142 95.472h-6.345c-8.192 0-14.856-6.665-14.856-14.856s6.665-14.856 14.856-14.856h6.345c1.104 0 2 .896 2 2v25.713c0 1.104-.895 1.999-2 1.999zm-6.345-25.713c-5.986 0-10.856 4.87-10.856 10.856s4.87 10.856 10.856 10.856h4.345v-21.712z" fill="#690589"/></g><g><path d="m128 101.765h-25.539c-4.036 0-7.319-3.283-7.319-7.319v-27.661c0-4.035 3.283-7.318 7.319-7.318h25.539c4.035 0 7.318 3.283 7.318 7.318v27.661c0 4.036-3.283 7.319-7.318 7.319zm-25.539-38.298c-1.83 0-3.319 1.489-3.319 3.318v27.661c0 1.83 1.489 3.319 3.319 3.319h25.539c1.83 0 3.318-1.489 3.318-3.319v-27.661c0-1.83-1.489-3.318-3.318-3.318z" fill="#690589"/></g><g><path d="m128 170.27c-.714 0-1.375-.381-1.732-1l-10.79-18.689c-31.664-5.975-54.548-33.533-54.548-65.883 0-36.983 30.087-67.07 67.07-67.07s67.07 30.087 67.07 67.07c0 32.35-22.884 59.908-54.548 65.883l-10.79 18.689c-.357.618-1.018 1-1.732 1zm0-148.643c-34.777 0-63.07 28.293-63.07 63.07 0 30.717 21.937 56.838 52.161 62.11.583.102 1.092.457 1.388.97l9.521 16.493 9.521-16.491c.296-.513.805-.869 1.388-.97 30.224-5.272 52.161-31.394 52.161-62.11 0-34.778-28.293-63.072-63.07-63.072z" fill="#690589"/></g></g></svg>