<svg id="Layer_1" enable-background="new 0 0 256 256" height="512" viewBox="0 0 256 256" width="512" xmlns="http://www.w3.org/2000/svg"><g><g><path d="m243.15 191.318h-230.3c-4.888 0-8.85-3.962-8.85-8.85v-141.796c0-4.888 3.962-8.85 8.85-8.85h230.3c4.888 0 8.85 3.962 8.85 8.85v141.796c0 4.888-3.962 8.85-8.85 8.85z" fill="#f4efed"/></g><g><ellipse cx="128" cy="103.894" fill="#526faa" rx="61.008" ry="61.008" transform="matrix(.973 -.233 .233 .973 -20.669 32.651)"/></g><g><path d="m128 166.91c-17.09 0-30.478-27.68-30.478-63.016s13.388-63.016 30.478-63.016 30.478 27.68 30.478 63.016-13.388 63.016-30.478 63.016zm0-122.032c-14.353 0-26.478 27.026-26.478 59.016s12.125 59.016 26.478 59.016 26.478-27.026 26.478-59.016-12.125-59.016-26.478-59.016z" fill="#690589"/></g><g><path d="m128 166.902c-34.743 0-63.008-28.266-63.008-63.008s28.265-63.008 63.008-63.008c34.742 0 63.008 28.265 63.008 63.008s-28.266 63.008-63.008 63.008zm0-122.016c-32.537 0-59.008 26.471-59.008 59.008s26.471 59.008 59.008 59.008 59.008-26.471 59.008-59.008-26.471-59.008-59.008-59.008z" fill="#690589"/></g><g><path d="m188.508 105.894h-121.016c-1.104 0-2-.896-2-2s.896-2 2-2h121.016c1.104 0 2 .896 2 2s-.896 2-2 2z" fill="#690589"/></g><g><path d="m128 166.402c-1.104 0-2-.896-2-2v-121.016c0-1.104.896-2 2-2s2 .896 2 2v121.016c0 1.105-.896 2-2 2z" fill="#690589"/></g><g><path d="m243.15 31.822h-10c4.888 0 8.85 3.962 8.85 8.85v141.796c0 4.888-3.962 8.85-8.85 8.85h10c4.888 0 8.85-3.962 8.85-8.85v-141.796c0-4.888-3.962-8.85-8.85-8.85z" fill="#d6d1cf"/></g><g><path d="m12.85 191.318h10c-4.888 0-8.85-3.962-8.85-8.85v-141.796c0-4.888 3.962-8.85 8.85-8.85h-10c-4.888 0-8.85 3.962-8.85 8.85v141.796c0 4.888 3.962 8.85 8.85 8.85z" fill="#fff"/></g><g><path d="m243.15 193.318h-230.3c-5.983 0-10.85-4.867-10.85-10.85v-141.796c0-5.983 4.867-10.85 10.85-10.85h230.3c5.982 0 10.85 4.867 10.85 10.85v141.796c0 5.983-4.867 10.85-10.85 10.85zm-230.3-159.496c-3.777 0-6.85 3.073-6.85 6.85v141.796c0 3.777 3.073 6.85 6.85 6.85h230.3c3.777 0 6.85-3.073 6.85-6.85v-141.796c0-3.777-3.072-6.85-6.85-6.85z" fill="#690589"/></g><g><path d="m13 69.026c-1.104 0-2-.896-2-2v-12c0-1.104.896-2 2-2s2 .896 2 2v12c0 1.104-.896 2-2 2z" fill="#690589"/></g><g><path d="m208.901 224.178h-161.802v-11.854c0-4.888 3.962-8.85 8.85-8.85h144.102c4.888 0 8.85 3.962 8.85 8.85z" fill="#526faa"/></g><g><path d="m200.051 203.474h-10c4.888 0 8.85 3.962 8.85 8.85v11.855h10v-11.855c0-4.888-3.962-8.85-8.85-8.85z" fill="#34518c"/></g><g><path d="m55.949 203.474h10c-4.888 0-8.85 3.962-8.85 8.85v11.855h-10v-11.855c0-4.888 3.962-8.85 8.85-8.85z" fill="#708dc8"/></g><g><path d="m80.503 191.318h94.993v12.156h-94.993z" fill="#34518c"/></g><g><path d="m208.901 226.178h-161.802c-1.104 0-2-.896-2-2v-11.854c0-5.983 4.867-10.85 10.85-10.85h144.102c5.983 0 10.851 4.867 10.851 10.85v11.854c-.001 1.105-.896 2-2.001 2zm-159.802-4h157.802v-9.854c0-3.777-3.073-6.85-6.851-6.85h-144.101c-3.777 0-6.85 3.073-6.85 6.85z" fill="#690589"/></g><g><path d="m175.497 205.474h-94.994c-1.104 0-2-.896-2-2v-12.155c0-1.104.896-2 2-2h94.994c1.104 0 2 .896 2 2v12.155c0 1.104-.895 2-2 2zm-92.994-4h90.994v-8.155h-90.994z" fill="#690589"/></g><g><path d="m168.28 87.425v1.499c0 23.954 11.179 46.536 30.228 61.06 19.049-14.524 30.228-37.106 30.228-61.06v-1.499l-30.228-16.463z" fill="#fcc24c"/></g><g><path d="m198.508 151.984c-.428 0-.854-.137-1.213-.41-19.42-14.809-31.015-38.229-31.015-62.65v-1.499c0-.732.4-1.406 1.043-1.756l30.228-16.463c.598-.325 1.316-.325 1.914 0l30.229 16.463c.643.35 1.043 1.024 1.043 1.756v1.499c0 24.421-11.595 47.842-31.016 62.65-.359.273-.786.41-1.213.41zm-28.228-63.371v.311c0 22.667 10.525 44.429 28.228 58.525 17.705-14.096 28.229-35.855 28.229-58.525v-.311l-28.229-15.374z" fill="#690589"/></g><g><g><g><path d="m196.104 118.025-11.011-10.437 2.752-2.903 8.347 7.913 13.413-11.91 2.657 2.991z" fill="#690589"/></g></g></g><g><path d="m128 82.015c-19.567 0-37.651-4.208-49.615-11.545-.942-.578-1.237-1.809-.66-2.75.578-.941 1.809-1.236 2.75-.66 11.354 6.961 28.676 10.955 47.525 10.955 18.85 0 36.171-3.993 47.523-10.955.941-.577 2.173-.282 2.751.66.577.941.282 2.173-.659 2.75-11.965 7.337-30.048 11.545-49.615 11.545z" fill="#690589"/></g><g><path d="m79.42 141.032c-.672 0-1.329-.339-1.707-.955-.578-.941-.283-2.173.659-2.75 11.964-7.342 30.053-11.553 49.627-11.553s37.663 4.211 49.628 11.553c.941.578 1.236 1.809.659 2.75-.578.941-1.809 1.237-2.751.659-11.354-6.966-28.68-10.962-47.536-10.962-18.857 0-36.183 3.996-47.536 10.962-.325.2-.686.296-1.043.296z" fill="#690589"/></g><g><path d="m118.616 150.15v-17.69h18.853v17.69h13.185c6.594.008 11.932 5.423 11.924 12.017v15.901h-69.156v-16c.008-6.594 5.392-11.932 11.986-11.924z" fill="#f4efed"/></g><g><path d="m162.578 180.068h-69.156c-1.104 0-2-.896-2-2v-16c.005-3.725 1.465-7.225 4.113-9.856 2.64-2.623 6.14-4.067 9.856-4.067h.018l11.206.004v-15.689c0-1.104.896-2 2-2h18.853c1.104 0 2 .896 2 2v15.689h11.186c7.688.01 13.933 6.299 13.924 14.02v15.899c0 1.104-.895 2-2 2zm-67.156-4h65.156v-13.901c.007-5.517-4.446-10.01-9.927-10.017h-13.183c-1.104 0-2-.896-2-2v-15.69h-14.853v15.689c0 .531-.211 1.04-.586 1.415s-.884.585-1.414.585c0 0 0 0-.001 0l-13.208-.005c-.004 0-.009 0-.013 0-5.494 0-9.965 4.45-9.972 9.926v13.998z" fill="#690589"/></g><g><path d="m118.616 132.46h18.853v18.956c0 5.206-4.221 9.426-9.427 9.426-5.206 0-9.426-4.22-9.426-9.426z" fill="#ff9f70"/></g><g><path d="m128.042 162.843c-6.3 0-11.426-5.126-11.426-11.427v-18.956c0-1.104.896-2 2-2h18.853c1.104 0 2 .896 2 2v18.956c0 6.301-5.126 11.427-11.427 11.427zm-7.426-28.383v16.956c0 4.095 3.332 7.427 7.426 7.427 4.095 0 7.426-3.332 7.426-7.427v-16.956z" fill="#690589"/></g><g><path d="m109.33 116.322h-1.334c-3.449 0-6.245 2.796-6.245 6.245s2.796 6.245 6.245 6.245h1.334z" fill="#ff9f70"/></g><g><path d="m148.038 116.322h-1.334v12.49h1.334c3.449 0 6.245-2.796 6.245-6.245s-2.796-6.245-6.245-6.245z" fill="#ff9f70"/></g><g><path d="m128.017 148.068c-10.321 0-18.687-8.475-18.687-18.93v-13.105c0-10.455 8.366-18.93 18.687-18.93 10.32 0 18.687 8.475 18.687 18.93v13.105c0 10.455-8.366 18.93-18.687 18.93z" fill="#ff9f70"/></g><g><path d="m128.018 150.068c-11.407 0-20.687-9.389-20.687-20.93v-13.105c0-11.541 9.28-20.93 20.687-20.93 11.406 0 20.687 9.389 20.687 20.93v13.105c-.001 11.541-9.281 20.93-20.687 20.93zm0-50.964c-9.201 0-16.687 7.595-16.687 16.93v13.105c0 9.335 7.486 16.93 16.687 16.93s16.687-7.595 16.687-16.93v-13.105c-.001-9.336-7.486-16.93-16.687-16.93z" fill="#690589"/></g><g><path d="m109.331 130.812h-1.334c-4.546 0-8.245-3.699-8.245-8.245s3.699-8.245 8.245-8.245h1.334c1.104 0 2 .896 2 2v12.49c0 1.105-.896 2-2 2zm-2-12.437c-2.025.32-3.579 2.079-3.579 4.193s1.554 3.872 3.579 4.192z" fill="#690589"/></g><g><path d="m148.038 130.812h-1.334c-1.104 0-2-.896-2-2v-12.49c0-1.104.896-2 2-2h1.334c4.546 0 8.245 3.699 8.245 8.245s-3.699 8.245-8.245 8.245zm.666-12.437v8.385c2.025-.32 3.579-2.079 3.579-4.192 0-2.115-1.554-3.873-3.579-4.193z" fill="#690589"/></g></g></svg>