<svg id="Layer_1" enable-background="new 0 0 256 256" height="512" viewBox="0 0 256 256" width="512" xmlns="http://www.w3.org/2000/svg"><g><g><path d="m243.15 191.318h-230.3c-4.888 0-8.85-3.962-8.85-8.85v-141.796c0-4.888 3.962-8.85 8.85-8.85h230.3c4.888 0 8.85 3.962 8.85 8.85v141.796c0 4.888-3.962 8.85-8.85 8.85z" fill="#f4efed"/></g><g><path d="m22.85 45.046h210.3v133.047h-210.3z" fill="#fcc24c"/></g><g><path d="m143.26 75.323 15.103-1.522-29.922 29.922 7.406 7.406 29.921-29.922-1.521 15.103 10.421 1.05 3.635-36.093-36.093 3.635z" fill="#8852a8"/></g><g><path d="m112.74 147.817-15.103 1.522 29.922-29.922-7.406-7.406-29.922 29.922 1.522-15.103-10.421-1.05-3.635 36.093 36.093-3.635z" fill="#8852a8"/></g><g><path d="m243.15 31.822h-10c4.888 0 8.85 3.962 8.85 8.85v141.796c0 4.888-3.962 8.85-8.85 8.85h10c4.888 0 8.85-3.962 8.85-8.85v-141.796c0-4.888-3.962-8.85-8.85-8.85z" fill="#d6d1cf"/></g><g><path d="m12.85 191.318h10c-4.888 0-8.85-3.962-8.85-8.85v-141.796c0-4.888 3.962-8.85 8.85-8.85h-10c-4.888 0-8.85 3.962-8.85 8.85v141.796c0 4.888 3.962 8.85 8.85 8.85z" fill="#fff"/></g><g><path d="m208.901 224.178h-161.802v-11.854c0-4.888 3.962-8.85 8.85-8.85h144.102c4.888 0 8.85 3.962 8.85 8.85z" fill="#526faa"/></g><g><path d="m200.051 203.474h-10c4.888 0 8.85 3.962 8.85 8.85v11.855h10v-11.855c0-4.888-3.962-8.85-8.85-8.85z" fill="#34518c"/></g><g><path d="m55.949 203.474h10c-4.888 0-8.85 3.962-8.85 8.85v11.855h-10v-11.855c0-4.888 3.962-8.85 8.85-8.85z" fill="#708dc8"/></g><g><path d="m80.503 191.318h94.993v12.156h-94.993z" fill="#34518c"/></g><g><path d="m12 69.026c-1.104 0-2-.896-2-2v-12c0-1.104.896-2 2-2s2 .896 2 2v12c0 1.104-.896 2-2 2z" fill="#690589"/></g><g><path d="m208.901 226.178h-161.802c-1.104 0-2-.896-2-2v-11.854c0-5.983 4.867-10.85 10.851-10.85h144.102c5.983 0 10.851 4.867 10.851 10.85v11.854c-.002 1.105-.897 2-2.002 2zm-159.802-4h157.803v-9.854c0-3.777-3.073-6.85-6.851-6.85h-144.102c-3.777 0-6.851 3.073-6.851 6.85v9.854z" fill="#690589"/></g><g><path d="m175.497 205.474h-94.994c-1.104 0-2-.896-2-2v-12.155c0-1.104.896-2 2-2h94.994c1.104 0 2 .896 2 2v12.155c0 1.104-.895 2-2 2zm-92.994-4h90.994v-8.155h-90.994z" fill="#690589"/></g><g><path d="m243.15 193.318h-230.3c-5.982 0-10.85-4.867-10.85-10.85v-141.796c0-5.983 4.867-10.85 10.85-10.85h230.3c5.982 0 10.85 4.867 10.85 10.85v141.796c0 5.983-4.867 10.85-10.85 10.85zm-230.3-159.496c-3.777 0-6.85 3.073-6.85 6.85v141.796c0 3.777 3.072 6.85 6.85 6.85h230.3c3.777 0 6.85-3.073 6.85-6.85v-141.796c0-3.777-3.072-6.85-6.85-6.85z" fill="#690589"/></g><g><path d="m233.15 180.094h-210.3c-1.104 0-2-.896-2-2v-133.048c0-1.104.896-2 2-2h210.3c1.104 0 2 .896 2 2v133.047c0 1.105-.895 2.001-2 2.001zm-208.3-4h206.3v-129.048h-206.3z" fill="#690589"/></g><g><path d="m135.847 113.129c-.53 0-1.039-.211-1.414-.586l-7.405-7.406c-.781-.781-.781-2.047 0-2.828l25.955-25.956-9.522.959c-1.093.111-2.079-.691-2.19-1.789l-1.05-10.42c-.053-.528.105-1.055.441-1.466s.82-.672 1.349-.725l36.093-3.636c.592-.062 1.189.151 1.614.576s.636 1.017.576 1.614l-3.635 36.094c-.054.528-.314 1.013-.725 1.349-.412.335-.941.493-1.466.441l-10.421-1.05c-1.1-.11-1.9-1.091-1.79-2.19l.96-9.522-25.956 25.956c-.375.374-.884.585-1.414.585zm-4.577-9.406 4.577 4.577 28.508-28.507c.598-.598 1.506-.755 2.271-.393.764.362 1.217 1.166 1.133 2.008l-1.321 13.113 6.441.649 3.188-31.668-31.667 3.19.648 6.44 13.114-1.321c.831-.086 1.645.368 2.007 1.133.362.764.205 1.673-.393 2.271z" fill="#690589"/></g><g><path d="m77.697 163.873c-.527 0-1.037-.209-1.414-.586-.425-.424-.636-1.017-.576-1.614l3.635-36.093c.054-.528.314-1.013.725-1.349.411-.335.938-.495 1.466-.441l10.421 1.05c.528.053 1.013.313 1.349.725.336.411.494.938.441 1.466l-.96 9.522 25.956-25.955c.375-.375.884-.586 1.414-.586.53 0 1.039.211 1.414.586l7.405 7.406c.781.781.781 2.047 0 2.828l-25.955 25.956 9.522-.959c1.115-.107 2.079.691 2.19 1.789l1.05 10.42c.053.528-.105 1.055-.441 1.466s-.82.672-1.349.725l-36.093 3.635c-.066.006-.133.009-.2.009zm5.424-35.903-3.188 31.667 31.667-3.189-.648-6.44-13.114 1.32c-.844.087-1.645-.368-2.007-1.133-.362-.764-.205-1.673.393-2.271l28.508-28.507-4.577-4.577-28.508 28.507c-.598.598-1.506.755-2.271.393-.764-.362-1.217-1.166-1.133-2.008l1.321-13.113z" fill="#690589"/></g><g><path d="m247.286 224.178h-68.77c-2.604 0-4.714-2.111-4.714-4.714v-107.485c0-2.604 2.111-4.714 4.714-4.714h68.77c2.604 0 4.714 2.111 4.714 4.714v107.485c0 2.604-2.111 4.714-4.714 4.714z" fill="#f4efed"/></g><g><circle cx="212.901" cy="211.957" fill="#690589" r="4.658"/></g><g><path d="m247.286 107.265h-6.714c2.604 0 4.714 2.111 4.714 4.714v107.485c0 2.604-2.111 4.714-4.714 4.714h6.714c2.604 0 4.714-2.111 4.714-4.714v-107.485c0-2.603-2.111-4.714-4.714-4.714z" fill="#d6d1cf"/></g><g><path d="m178.516 224.178h6.714c-2.604 0-4.714-2.111-4.714-4.714v-107.485c0-2.604 2.111-4.714 4.714-4.714h-6.714c-2.604 0-4.714 2.111-4.714 4.714v107.485c0 2.604 2.111 4.714 4.714 4.714z" fill="#fff"/></g><g><path d="m227.917 118.396h-30.032c-1.893 0-3.603-1.132-4.341-2.876l-3.496-8.255h45.706l-3.496 8.255c-.738 1.743-2.448 2.876-4.341 2.876z" fill="#526faa"/></g><g><path d="m247.286 226.178h-68.77c-3.702 0-6.715-3.012-6.715-6.714v-107.485c0-3.702 3.013-6.714 6.715-6.714h68.77c3.702 0 6.714 3.012 6.714 6.714v107.484c0 3.703-3.012 6.715-6.714 6.715zm-68.769-116.913c-1.497 0-2.715 1.218-2.715 2.714v107.484c0 1.497 1.218 2.714 2.715 2.714h68.77c1.496 0 2.714-1.218 2.714-2.714v-107.484c0-1.497-1.218-2.714-2.714-2.714z" fill="#690589"/></g><g><path d="m227.917 120.396h-30.032c-2.702 0-5.129-1.608-6.183-4.096l-3.496-8.255c-.262-.618-.196-1.325.175-1.884.37-.559.996-.896 1.667-.896h45.706c.671 0 1.297.336 1.667.896.371.559.437 1.267.175 1.884l-3.496 8.255c-1.054 2.488-3.481 4.096-6.183 4.096zm-34.851-11.131 2.319 5.475c.426 1.006 1.407 1.656 2.499 1.656h30.032c1.092 0 2.073-.65 2.499-1.656l2.319-5.475z" fill="#690589"/></g><g><path d="m182.247 135.068h61.308v61.308h-61.308z" fill="#fcc24c"/></g><g><path d="m243.555 198.375h-61.308c-1.104 0-2-.896-2-2v-61.308c0-1.104.896-2 2-2h61.308c1.104 0 2 .896 2 2v61.308c0 1.105-.896 2-2 2zm-59.308-4h57.308v-57.308h-57.308z" fill="#690589"/></g><g><path d="m219.764 149.419 6.793-.685-13.458 13.458 3.331 3.331 13.458-13.458-.684 6.793 4.687.473 1.635-16.234-16.234 1.635z" fill="#690589"/></g><g><path d="m206.038 182.025-6.793.684 13.457-13.458-3.33-3.331-13.458 13.458.684-6.793-4.687-.472-1.635 16.234 16.234-1.635z" fill="#690589"/></g></g></svg>