<svg id="Layer_1" enable-background="new 0 0 256 256" height="512" viewBox="0 0 256 256" width="512" xmlns="http://www.w3.org/2000/svg"><g><g><path d="m233.738 175.968h-221.236c-4.695 0-8.502-3.806-8.502-8.502v-136.215c0-4.695 3.806-8.502 8.502-8.502h221.236c4.695 0 8.502 3.806 8.502 8.502v136.216c-.001 4.695-3.807 8.501-8.502 8.501z" fill="#f4efed"/></g><g><g><path d="m135.664 83.978c3.863 4.112 6.293 9.596 6.293 15.765s-2.43 11.715-6.293 15.765c-3.676 4.05-9.16 6.667-14.893 6.667-5.982 0-11.466-2.617-15.266-6.667-3.864-4.05-6.169-9.596-6.169-15.765s2.305-11.652 6.169-15.765c3.8-4.113 9.284-6.667 15.266-6.667 5.733 0 11.217 2.555 14.893 6.667zm-.81 15.765c0-4.237-1.682-8.163-4.237-10.904-2.617-2.804-6.107-4.424-9.846-4.424-3.988 0-7.478 1.62-10.094 4.424-2.617 2.742-4.238 6.667-4.238 10.904 0 4.238 1.62 8.163 4.238 10.842 2.617 2.804 6.106 4.486 10.094 4.486 3.738 0 7.228-1.683 9.846-4.486 2.555-2.679 4.237-6.605 4.237-10.842z" fill="#526faa"/></g></g><g><path d="m64.318 118.748v-36.764c0-1.932 1.495-3.427 3.427-3.427h.063.124 20.189c1.807 0 3.427 1.496 3.427 3.427s-1.62 3.489-3.427 3.489h-16.886v11.403h14.519c1.87 0 3.427 1.62 3.427 3.427 0 1.932-1.557 3.489-3.427 3.489h-14.519v11.465h16.886c1.807 0 3.427 1.558 3.427 3.49 0 1.869-1.62 3.427-3.427 3.427h-20.19c-.124 0-.124-.062-.124-.062l-.063.062c-1.931.001-3.426-1.556-3.426-3.426z" fill="#fcc24c"/></g><g><path d="m21.386 111.333c1.121-1.371 3.177-1.558 4.548-.436 2.742 2.243 7.478 4.86 11.902 4.798 3.116 0 5.919-.934 7.789-2.306 1.869-1.371 2.679-2.929 2.679-4.487 0-.81-.187-1.371-.561-1.994-.373-.623-.934-1.246-1.87-1.869-1.807-1.184-4.86-2.243-8.536-2.929h-.125c-2.929-.561-5.671-1.308-8.039-2.43s-4.424-2.679-5.795-4.86c-.934-1.496-1.433-3.24-1.433-5.11 0-3.738 2.119-6.979 4.985-9.098 2.929-2.118 6.73-3.302 10.78-3.302 5.982 0 10.407 2.928 13.584 4.985 1.433.997 1.87 2.991.872 4.424-.934 1.495-2.929 1.932-4.424.935-3.177-2.119-6.231-3.988-10.032-3.988-2.804 0-5.297.872-6.979 2.118-1.683 1.246-2.368 2.617-2.368 3.926 0 .748.125 1.246.436 1.745s.872 1.059 1.682 1.62c1.62 1.121 4.424 2.119 7.789 2.742h.125c3.177.623 6.106 1.433 8.599 2.617 2.554 1.246 4.798 2.866 6.231 5.172.934 1.495 1.495 3.365 1.495 5.296 0 3.988-2.243 7.415-5.359 9.659-3.054 2.243-7.103 3.552-11.528 3.552-6.73-.062-12.4-3.427-15.952-6.231-1.367-1.122-1.555-3.178-.495-4.549z" fill="#8852a8"/></g><g><path d="m233.738 22.749h-9.606c4.695 0 8.502 3.806 8.502 8.502v136.215c0 4.695-3.806 8.502-8.502 8.502h9.606c4.695 0 8.502-3.806 8.502-8.502v-136.215c-.001-4.696-3.807-8.502-8.502-8.502z" fill="#d6d1cf"/></g><g><path d="m12.502 175.968h9.606c-4.695 0-8.502-3.806-8.502-8.502v-136.215c0-4.695 3.806-8.502 8.502-8.502h-9.606c-4.696 0-8.502 3.806-8.502 8.502v136.216c0 4.695 3.806 8.501 8.502 8.501z" fill="#fff"/></g><g><path d="m200.836 207.535h-155.433v-11.388c0-4.695 3.806-8.502 8.502-8.502h138.43c4.695 0 8.502 3.806 8.502 8.502v11.388z" fill="#526faa"/></g><g><path d="m192.335 187.645h-9.606c4.695 0 8.502 3.806 8.502 8.502v11.388h9.606v-11.388c-.001-4.696-3.807-8.502-8.502-8.502z" fill="#34518c"/></g><g><path d="m53.904 187.645h9.606c-4.695 0-8.502 3.806-8.502 8.502v11.388h-9.606v-11.388c.001-4.696 3.807-8.502 8.502-8.502z" fill="#708dc8"/></g><g><path d="m77.492 175.968h91.255v11.677h-91.255z" fill="#34518c"/></g><g><path d="m11.686 58.804c-1.104 0-2-.896-2-2v-12c0-1.104.896-2 2-2s2 .896 2 2v12c0 1.104-.896 2-2 2z" fill="#690589"/></g><g><path d="m200.836 209.535h-155.434c-1.104 0-2-.896-2-2v-11.388c0-5.791 4.711-10.502 10.502-10.502h138.431c5.79 0 10.501 4.711 10.501 10.502v11.388c0 1.104-.896 2-2 2zm-153.434-4h151.434v-9.388c0-3.585-2.916-6.502-6.501-6.502h-138.431c-3.585 0-6.502 2.917-6.502 6.502z" fill="#690589"/></g><g><path d="m168.747 189.645h-91.255c-1.104 0-2-.896-2-2v-11.677c0-1.104.896-2 2-2h91.255c1.104 0 2 .896 2 2v11.677c0 1.105-.895 2-2 2zm-89.255-4h87.255v-7.677h-87.255z" fill="#690589"/></g><g><path d="m233.737 177.968h-221.235c-5.791 0-10.502-4.711-10.502-10.502v-136.216c0-5.791 4.711-10.501 10.502-10.501h221.235c5.791 0 10.502 4.711 10.502 10.501v136.216c0 5.791-4.711 10.502-10.502 10.502zm-221.235-153.219c-3.585 0-6.502 2.917-6.502 6.501v136.216c0 3.585 2.917 6.501 6.502 6.501h221.235c3.585 0 6.502-2.917 6.502-6.501v-136.216c0-3.585-2.917-6.501-6.502-6.501z" fill="#690589"/></g><g><path d="m200.836 233.251c-9.285 0-16.529-8.037-15.568-17.272l7.511-72.172h16.114l7.511 72.172c.961 9.235-6.282 17.272-15.568 17.272z" fill="#526faa"/></g><g><path d="m216.404 215.979-7.511-72.172h-4.837l7.511 72.172c.876 8.416-5.063 15.833-13.15 17.084.788.122 1.594.188 2.418.188 9.287 0 16.53-8.037 15.569-17.272z" fill="#34518c"/></g><g><path d="m185.268 215.979 7.511-72.172h4.837l-7.511 72.172c-.876 8.416 5.063 15.833 13.15 17.084-.787.122-1.594.188-2.418.188-9.286 0-16.53-8.037-15.569-17.272z" fill="#708dc8"/></g><g><path d="m200.836 235.251c-4.991 0-9.77-2.126-13.111-5.833s-4.962-8.681-4.445-13.646l7.511-72.172c.106-1.019.965-1.793 1.989-1.793h16.114c1.024 0 1.883.774 1.989 1.793l7.511 72.172c.517 4.965-1.104 9.938-4.445 13.646-3.343 3.707-8.122 5.833-13.113 5.833zm-6.254-89.444-7.324 70.379c-.399 3.84.854 7.687 3.438 10.554s6.28 4.511 10.14 4.511 7.557-1.645 10.141-4.512c2.585-2.867 3.838-6.714 3.438-10.554l-7.324-70.379h-12.509z" fill="#690589"/></g><g><ellipse cx="200.836" cy="99.359" fill="#fcc24c" rx="51.164" ry="51.164" transform="matrix(.16 -.987 .987 .16 70.59 281.686)"/></g><g><path d="m199.648 150.335c.881.072 1.769.118 2.662.149 27.574-.782 49.69-23.364 49.69-51.126 0-27.764-22.118-50.346-49.692-51.126-.891.031-1.779.078-2.659.149 26.285 2.144 46.953 24.139 46.953 50.977-.001 26.838-20.668 48.834-46.954 50.977z" fill="#dea42e"/></g><g><path d="m202.024 48.382c-.881-.072-1.769-.118-2.662-.149-27.574.782-49.69 23.364-49.69 51.126 0 27.764 22.118 50.346 49.692 51.126.891-.031 1.779-.078 2.659-.149-26.285-2.144-46.953-24.139-46.953-50.977.002-26.838 20.669-48.834 46.954-50.977z" fill="#fce06a"/></g><g><path d="m200.837 152.497c-13.614 0-27.229-5.182-37.593-15.546-20.729-20.728-20.729-54.456 0-75.185 20.729-20.728 54.456-20.729 75.185 0 20.729 20.729 20.729 54.457 0 75.185-10.365 10.364-23.979 15.546-37.592 15.546zm0-102.279c-12.59 0-25.18 4.792-34.765 14.376-19.169 19.169-19.169 50.359 0 69.528 19.169 19.168 50.357 19.17 69.528 0 19.169-19.169 19.169-50.359 0-69.528-9.584-9.584-22.174-14.376-34.763-14.376z" fill="#690589"/></g><g><circle cx="200.836" cy="99.358" fill="#f4efed" r="37.746"/></g><g><path d="m200.836 139.086c-10.178 0-20.356-3.874-28.104-11.623-15.496-15.497-15.496-40.713 0-56.209 7.507-7.507 17.488-11.642 28.105-11.642 10.616 0 20.598 4.135 28.104 11.642 15.496 15.497 15.496 40.712 0 56.209-7.748 7.749-17.926 11.623-28.105 11.623zm0-75.457c-9.153 0-18.308 3.484-25.276 10.453-13.937 13.938-13.937 36.615 0 50.553 13.938 13.938 36.616 13.937 50.554 0 13.937-13.938 13.937-36.616 0-50.553-6.969-6.969-16.124-10.453-25.278-10.453z" fill="#690589"/></g><g><path d="m37.836 124.113c-7.323-.068-13.389-3.66-17.19-6.662-2.215-1.81-2.579-5.094-.841-7.342.011-.014.022-.029.034-.042.882-1.079 2.14-1.746 3.54-1.877 1.388-.131 2.747.281 3.822 1.16 2.464 2.016 6.669 4.347 10.477 4.347.043 0 .086 0 .13-.001 2.527 0 4.998-.717 6.636-1.918 1.234-.906 1.861-1.874 1.861-2.874 0-.397-.06-.604-.275-.965-.168-.28-.483-.713-1.264-1.233-1.56-1.021-4.334-1.967-7.621-2.594-.104-.004-.206-.015-.308-.035-3.454-.661-6.24-1.507-8.519-2.587-2.939-1.392-5.171-3.277-6.632-5.603-1.14-1.824-1.74-3.958-1.74-6.174 0-4.081 2.112-7.982 5.797-10.706 3.298-2.386 7.543-3.694 11.969-3.694 6.477 0 11.314 3.133 14.516 5.206l.155.1c1.178.818 1.947 1.987 2.221 3.328.282 1.385 0 2.776-.794 3.917-.687 1.103-1.849 1.919-3.217 2.213-1.381.297-2.781.027-3.958-.757-3.104-2.069-5.731-3.652-8.923-3.652-2.198 0-4.309.629-5.789 1.726-.711.526-1.558 1.356-1.558 2.318 0 .473.067.581.133.685.067.108.342.494 1.125 1.036 1.356.939 3.905 1.828 6.842 2.387.106.004.213.016.317.037 3.758.737 6.641 1.618 9.072 2.773 3.279 1.6 5.586 3.534 7.071 5.922 1.158 1.855 1.797 4.112 1.797 6.353 0 4.337-2.256 8.449-6.189 11.282-3.444 2.527-7.959 3.926-12.697 3.926zm-14.884-11.535c-.392.532-.303 1.346.198 1.755 3.286 2.593 8.529 5.723 14.704 5.78 3.874 0 7.548-1.124 10.326-3.164 2.892-2.083 4.542-5.012 4.542-8.047 0-1.501-.423-3.006-1.191-4.237-1.078-1.733-2.848-3.183-5.412-4.434-2.036-.967-4.637-1.761-7.926-2.416-.096-.004-.19-.015-.285-.032-3.642-.674-6.684-1.763-8.563-3.064-1.011-.701-1.765-1.443-2.24-2.207-.511-.817-.739-1.682-.739-2.803 0-1.451.551-3.588 3.177-5.533 2.154-1.596 5.132-2.511 8.17-2.511 4.3 0 7.724 2.045 11.142 4.324.269.179.585.242.896.175.303-.065.559-.245.722-.506.274-.399.248-.741.212-.916-.065-.324-.259-.618-.529-.806l-.101-.063c-2.974-1.926-7.047-4.563-12.342-4.563-3.591 0-7.003 1.038-9.608 2.923-2.636 1.949-4.157 4.678-4.157 7.477 0 1.488.38 2.851 1.13 4.051 1.047 1.666 2.715 3.051 4.955 4.112 1.931.916 4.347 1.648 7.38 2.239.099.003.196.014.293.032 3.921.731 7.212 1.875 9.267 3.222 1.102.734 1.912 1.553 2.488 2.512.585.976.846 1.908.846 3.024 0 1.612-.606 3.979-3.495 6.099-2.376 1.743-5.749 2.688-9.155 2.695-4.83 0-9.867-2.7-12.986-5.251-.254-.208-.583-.304-.913-.273-.19.017-.537.094-.806.406z" fill="#690589"/></g><g><path d="m88.121 124.175h-20.189c-.034 0-.068-.001-.103-.002-.028.001-.056.002-.084.002-2.993 0-5.428-2.435-5.428-5.427v-36.764c0-3.043 2.384-5.428 5.428-5.428h20.376c2.992 0 5.427 2.435 5.427 5.428 0 2.976-2.485 5.489-5.427 5.489h-14.887v7.403h12.519c2.941 0 5.427 2.486 5.427 5.428 0 3.027-2.435 5.489-5.427 5.489h-12.519v7.465h14.887c2.941 0 5.427 2.514 5.427 5.49 0 2.942-2.486 5.427-5.427 5.427zm-18.313-2.066c0 .001 0 .001 0 0zm0-.003v.001s0 0 0-.001zm-1.523-1.895c.088.022.175.051.26.086.743.31 1.26 1.003 1.263 1.808-.004-.922-.67-1.718-1.523-1.894zm-.178-.036h20.014c.733 0 1.427-.693 1.427-1.427 0-.853-.753-1.49-1.427-1.49h-16.887c-1.104 0-2-.896-2-2v-11.465c0-1.104.896-2 2-2h14.519c.773 0 1.427-.682 1.427-1.489 0-.734-.693-1.428-1.427-1.428h-14.519c-1.104 0-2-.896-2-2v-11.402c0-1.104.896-2 2-2h16.887c.674 0 1.427-.637 1.427-1.489 0-.841-.752-1.428-1.427-1.428h-20.313c-.89 0-1.49.601-1.49 1.428v36.764c0 .741.538 1.333 1.254 1.417.177-.022.359-.019.535.009z" fill="#690589"/></g><g><path d="m120.771 124.175c-6.276 0-12.372-2.66-16.725-7.298-4.324-4.533-6.711-10.622-6.711-17.134 0-6.442 2.384-12.528 6.711-17.135 4.282-4.633 10.383-7.297 16.725-7.297 6.145 0 12.262 2.734 16.367 7.316 4.397 4.689 6.818 10.767 6.818 17.116 0 6.428-2.432 12.517-6.846 17.146-4.128 4.549-10.249 7.286-16.339 7.286zm0-44.864c-5.23 0-10.259 2.196-13.798 6.024-3.64 3.874-5.638 8.987-5.638 14.408 0 5.479 1.994 10.588 5.616 14.385 3.61 3.848 8.644 6.047 13.819 6.047 4.981 0 9.995-2.247 13.412-6.011 3.734-3.917 5.773-9.025 5.773-14.421 0-5.336-2.042-10.448-5.751-14.396-.011-.012-.022-.024-.033-.037-3.357-3.756-8.367-5.999-13.4-5.999zm0 37.761c-4.369 0-8.474-1.819-11.557-5.122-3.023-3.094-4.775-7.556-4.775-12.207 0-4.619 1.746-9.096 4.791-12.286 3.074-3.293 7.07-5.043 11.541-5.043 4.246 0 8.263 1.797 11.308 5.059 3.035 3.257 4.774 7.729 4.774 12.27 0 4.576-1.745 9.031-4.789 12.223-3.068 3.287-7.084 5.106-11.293 5.106zm0-30.657c-3.334 0-6.319 1.31-8.633 3.789-2.356 2.469-3.699 5.94-3.699 9.54 0 3.616 1.337 7.059 3.668 9.445 2.383 2.552 5.368 3.884 8.664 3.884 3.088 0 6.065-1.368 8.384-3.851 2.355-2.471 3.698-5.919 3.698-9.478 0-3.541-1.349-7.018-3.699-9.542-2.279-2.442-5.257-3.787-8.383-3.787z" fill="#690589"/></g><g><path d="m229.28 104.17v-9.528h-5.273c-.613-2.995-1.795-5.781-3.423-8.247l3.733-3.733-6.738-6.737-3.733 3.733c-2.466-1.628-5.252-2.81-8.246-3.423v-5.273h-9.528v5.273c-2.995.612-5.781 1.795-8.246 3.423l-3.733-3.733-6.738 6.737 3.733 3.733c-1.628 2.466-2.81 5.252-3.423 8.247h-5.273v9.528h5.273c.613 2.995 1.795 5.781 3.423 8.246l-3.733 3.733 6.738 6.737 3.733-3.733c2.466 1.628 5.252 2.81 8.246 3.423v5.273h9.528v-5.273c2.995-.613 5.781-1.795 8.247-3.423l3.733 3.733 6.738-6.737-3.733-3.733c1.628-2.466 2.81-5.252 3.423-8.246zm-28.444 9.495c-7.875 0-14.259-6.384-14.259-14.259s6.384-14.259 14.259-14.259 14.259 6.384 14.259 14.259c.001 7.875-6.383 14.259-14.259 14.259z" fill="#fcc24c"/></g><g><path d="m205.601 129.849h-9.528c-1.104 0-2-.896-2-2v-3.694c-2.078-.566-4.069-1.394-5.948-2.471l-2.617 2.617c-.781.781-2.047.781-2.828 0l-6.737-6.737c-.781-.781-.781-2.047 0-2.828l2.616-2.617c-1.077-1.879-1.903-3.871-2.47-5.949h-3.695c-1.104 0-2-.896-2-2v-9.528c0-1.104.896-2 2-2h3.695c.566-2.079 1.393-4.07 2.47-5.949l-2.616-2.617c-.781-.781-.781-2.047 0-2.828l6.737-6.737c.781-.781 2.047-.781 2.828 0l2.617 2.617c1.879-1.077 3.87-1.904 5.948-2.471v-3.694c0-1.104.896-2 2-2h9.528c1.104 0 2 .896 2 2v3.694c2.078.567 4.069 1.394 5.948 2.471l2.617-2.617c.781-.781 2.047-.781 2.828 0l6.737 6.737c.781.781.781 2.047 0 2.828l-2.616 2.617c1.077 1.879 1.903 3.871 2.47 5.949h3.695c1.104 0 2 .896 2 2v9.528c0 1.104-.896 2-2 2h-3.695c-.566 2.079-1.393 4.07-2.47 5.949l2.616 2.617c.781.781.781 2.047 0 2.828l-6.737 6.737c-.781.781-2.047.781-2.828 0l-2.617-2.617c-1.879 1.077-3.87 1.904-5.948 2.471v3.694c0 1.105-.896 2-2 2zm-7.529-4h5.528v-3.273c0-.95.668-1.769 1.6-1.959 2.691-.55 5.23-1.604 7.545-3.132.791-.524 1.844-.417 2.516.255l2.319 2.319 3.909-3.909-2.319-2.319c-.672-.671-.778-1.723-.255-2.516 1.528-2.314 2.582-4.853 3.133-7.545.189-.931 1.009-1.599 1.959-1.599h3.273v-5.528h-3.273c-.95 0-1.77-.668-1.96-1.6-.55-2.692-1.604-5.23-3.132-7.545-.523-.793-.417-1.845.255-2.516l2.319-2.319-3.909-3.909-2.319 2.319c-.671.672-1.724.78-2.516.255-2.314-1.528-4.854-2.582-7.545-3.132-.932-.19-1.6-1.009-1.6-1.959v-3.273h-5.528v3.273c0 .95-.669 1.769-1.6 1.959-2.691.55-5.229 1.604-7.545 3.132-.792.523-1.845.417-2.516-.255l-2.319-2.319-3.909 3.909 2.319 2.319c.672.671.778 1.723.255 2.516-1.528 2.314-2.582 4.853-3.132 7.545-.19.931-1.01 1.6-1.96 1.6h-3.273v5.528h3.273c.95 0 1.77.668 1.959 1.599.551 2.692 1.604 5.231 3.133 7.545.523.793.417 1.845-.255 2.516l-2.319 2.319 3.909 3.909 2.319-2.319c.672-.671 1.725-.779 2.516-.255 2.315 1.528 4.854 2.582 7.545 3.132.931.19 1.6 1.009 1.6 1.959zm2.764-10.184c-8.965 0-16.259-7.294-16.259-16.259s7.294-16.259 16.259-16.259c8.966 0 16.26 7.293 16.26 16.259s-7.294 16.259-16.26 16.259zm0-28.519c-6.76 0-12.259 5.5-12.259 12.259 0 6.76 5.499 12.259 12.259 12.259s12.26-5.5 12.26-12.259-5.5-12.259-12.26-12.259z" fill="#690589"/></g></g></svg>