<svg id="Layer_1" enable-background="new 0 0 256 256" height="512" viewBox="0 0 256 256" width="512" xmlns="http://www.w3.org/2000/svg"><g><g><path d="m243.15 218.167h-230.3c-4.888 0-8.85-3.962-8.85-8.85v-141.796c0-4.888 3.962-8.85 8.85-8.85h230.3c4.888 0 8.85 3.962 8.85 8.85v141.796c0 4.888-3.962 8.85-8.85 8.85z" fill="#f4efed"/></g><g><path d="m243.15 58.671h-10c4.888 0 8.85 3.962 8.85 8.85v141.796c0 4.888-3.962 8.85-8.85 8.85h10c4.888 0 8.85-3.962 8.85-8.85v-141.796c0-4.888-3.962-8.85-8.85-8.85z" fill="#d6d1cf"/></g><g><path d="m12.85 218.167h10c-4.888 0-8.85-3.962-8.85-8.85v-141.796c0-4.888 3.962-8.85 8.85-8.85h-10c-4.888 0-8.85 3.962-8.85 8.85v141.796c0 4.888 3.962 8.85 8.85 8.85z" fill="#fff"/></g><g><path d="m243.15 220.167h-230.3c-5.983 0-10.85-4.867-10.85-10.85v-141.796c0-5.983 4.867-10.85 10.85-10.85h230.3c5.982 0 10.85 4.867 10.85 10.85v141.796c0 5.983-4.867 10.85-10.85 10.85zm-230.3-159.496c-3.777 0-6.85 3.073-6.85 6.85v141.796c0 3.777 3.072 6.85 6.85 6.85h230.3c3.777 0 6.85-3.073 6.85-6.85v-141.796c0-3.777-3.072-6.85-6.85-6.85z" fill="#690589"/></g><g><path d="m13 95.875c-1.104 0-2-.896-2-2v-12c0-1.104.896-2 2-2s2 .896 2 2v12c0 1.105-.896 2-2 2z" fill="#690589"/></g><g><path d="m165.625 178.928c-.24 0-.476.014-.715.018-6.541-13.817-20.607-23.377-36.91-23.377s-30.369 9.56-36.91 23.377c-.239-.004-.475-.018-.715-.018-21.671 0-39.239 17.568-39.239 39.239h75.251 3.229 75.251c-.002-21.671-17.57-39.239-39.242-39.239z" fill="#fcc24c"/></g><g><path d="m208.901 251.027h-161.802v-11.854c0-4.888 3.962-8.85 8.85-8.85h144.102c4.888 0 8.85 3.962 8.85 8.85z" fill="#526faa"/></g><g><path d="m200.051 230.323h-10c4.888 0 8.85 3.962 8.85 8.85v11.854h10v-11.854c0-4.888-3.962-8.85-8.85-8.85z" fill="#34518c"/></g><g><path d="m55.949 230.323h10c-4.888 0-8.85 3.962-8.85 8.85v11.854h-10v-11.854c0-4.888 3.962-8.85 8.85-8.85z" fill="#708dc8"/></g><g><path d="m80.503 218.167h94.993v12.155h-94.993z" fill="#34518c"/></g><g><path d="m208.901 253.027h-161.802c-1.104 0-2-.896-2-2v-11.854c0-5.983 4.867-10.851 10.851-10.851h144.102c5.983 0 10.851 4.868 10.851 10.851v11.854c-.002 1.105-.897 2-2.002 2zm-159.802-4h157.803v-9.854c0-3.777-3.073-6.851-6.851-6.851h-144.102c-3.777 0-6.851 3.073-6.851 6.851v9.854z" fill="#690589"/></g><g><path d="m175.497 232.323h-94.994c-1.104 0-2-.896-2-2v-12.155c0-1.104.896-2 2-2h94.994c1.104 0 2 .896 2 2v12.155c0 1.104-.895 2-2 2zm-92.994-4h90.994v-8.155h-90.994z" fill="#690589"/></g><g><path d="m204.865 220.167h-153.73c-1.104 0-2-.896-2-2 0-22.564 18.218-40.955 40.718-41.236 7.278-14.234 22.11-23.363 38.147-23.363s30.869 9.128 38.147 23.363c22.5.281 40.718 18.671 40.718 41.236 0 1.105-.895 2-2 2zm-151.677-4h149.625c-1.042-19.608-17.323-35.239-37.188-35.239-.117 0-.233.004-.35.008l-.333.009c-.826.03-1.505-.435-1.84-1.144-6.394-13.506-20.173-22.233-35.103-22.233s-28.709 8.727-35.103 22.233c-.336.709-1.055 1.205-1.84 1.144l-.333-.009c-.116-.004-.232-.008-.35-.008-19.862 0-36.144 15.632-37.185 35.239z" fill="#690589"/></g><g><path d="m150.847 103.207h-45.694l-17.453 27.605v17.062h80.6v-17.062z" fill="#8852a8"/></g><g><path d="m160.341 118.225v29.649h7.959v-17.062z" fill="#6a348a"/></g><g><path d="m95.659 118.225v29.649h-7.959v-17.062z" fill="#a670c6"/></g><g><path d="m168.3 149.875h-80.6c-1.104 0-2-.896-2-2v-17.062c0-.378.107-.749.31-1.069l17.453-27.604c.366-.58 1.005-.931 1.69-.931h45.693c.686 0 1.324.352 1.69.931l17.453 27.604c.202.32.31.69.31 1.069v17.062c.001 1.104-.895 2-1.999 2zm-78.6-4h76.6v-14.483l-16.555-26.184h-43.49l-16.555 26.183z" fill="#690589"/></g><g><path d="m150.847 147.875h-45.694v-86.076c0-21.18 8.186-41.541 22.847-56.826 14.661 15.286 22.847 35.646 22.847 56.826z" fill="#f4efed"/></g><g><path d="m128.992 6.058c8.989 14.453 13.896 31.534 13.896 49.155v92.661h7.958v-86.075c.001-20.689-7.827-40.582-21.854-55.741z" fill="#d6d1cf"/></g><g><path d="m127.008 6.058c-8.989 14.453-13.896 31.534-13.896 49.155v92.661h-7.958v-86.075c-.001-20.689 7.827-40.582 21.854-55.741z" fill="#fff"/></g><g><path d="m150.847 149.875h-45.693c-1.104 0-2-.896-2-2v-86.076c0-21.803 8.312-42.476 23.403-58.21.754-.787 2.133-.787 2.887 0 15.092 15.734 23.403 36.408 23.403 58.21v86.076c0 1.104-.896 2-2 2zm-43.694-4h41.693v-84.076c0-20.06-7.387-39.116-20.847-53.897-13.46 14.782-20.847 33.837-20.847 53.897v84.076z" fill="#690589"/></g><g><path d="m135.398 160.253h-14.796v-49.648c0-4.086 3.312-7.398 7.398-7.398 4.086 0 7.398 3.312 7.398 7.398z" fill="#8852a8"/></g><g><path d="m135.397 162.253h-14.795c-1.104 0-2-.896-2-2v-49.647c0-5.182 4.216-9.398 9.397-9.398s9.397 4.216 9.397 9.398v49.647c.001 1.104-.894 2-1.999 2zm-12.794-4h10.795v-47.647c0-2.977-2.421-5.398-5.397-5.398s-5.397 2.421-5.397 5.398v47.647z" fill="#690589"/></g><g><circle cx="128" cy="52.253" fill="#526faa" r="9.961"/></g><g><path d="m128 64.214c-6.596 0-11.961-5.366-11.961-11.961 0-6.596 5.365-11.961 11.961-11.961s11.961 5.366 11.961 11.961-5.365 11.961-11.961 11.961zm0-19.922c-4.39 0-7.961 3.571-7.961 7.961s3.571 7.961 7.961 7.961 7.961-3.571 7.961-7.961-3.571-7.961-7.961-7.961z" fill="#690589"/></g><g><path d="m32.736 131.07 9.735-9.736 14.766 24.502 14.766 24.501-24.501-14.766-24.502-14.766z" fill="#fcc24c"/></g><g><path d="m223.264 131.07-9.735-9.736-14.766 24.502-14.766 24.501 24.501-14.766 24.502-14.766z" fill="#fcc24c"/></g><g><path d="m72.002 172.337c-.354 0-.711-.094-1.031-.287l-49.003-29.532c-.527-.317-.879-.86-.953-1.471-.074-.61.136-1.222.571-1.656l19.471-19.47c.435-.435 1.044-.643 1.656-.571.611.075 1.153.426 1.471.953l29.532 49.002c.475.787.352 1.796-.299 2.446-.386.386-.897.586-1.415.586zm-45.78-31.926 39.904 24.048-24.049-39.903-7.928 7.928zm6.513-9.341h.01z" fill="#690589"/></g><g><path d="m183.998 172.337c-.518 0-1.029-.2-1.415-.586-.65-.65-.773-1.659-.299-2.446l29.532-49.002c.317-.527.859-.878 1.471-.953.613-.075 1.222.136 1.656.571l19.471 19.47c.436.435.646 1.046.571 1.656-.074.611-.426 1.153-.953 1.471l-49.003 29.532c-.32.193-.676.287-1.031.287zm29.925-47.781-24.049 39.903 39.904-24.048-7.928-7.927z" fill="#690589"/></g></g></svg>