<svg id="Layer_1" enable-background="new 0 0 256 256" height="512" viewBox="0 0 256 256" width="512" xmlns="http://www.w3.org/2000/svg"><g><g><path d="m243.15 191.318h-230.3c-4.888 0-8.85-3.962-8.85-8.85v-141.796c0-4.888 3.962-8.85 8.85-8.85h230.3c4.888 0 8.85 3.962 8.85 8.85v141.796c0 4.888-3.962 8.85-8.85 8.85z" fill="#f4efed"/></g><g><path d="m243.15 31.822h-10c4.888 0 8.85 3.962 8.85 8.85v141.796c0 4.888-3.962 8.85-8.85 8.85h10c4.888 0 8.85-3.962 8.85-8.85v-141.796c0-4.888-3.962-8.85-8.85-8.85z" fill="#d6d1cf"/></g><g><path d="m12.85 191.318h10c-4.888 0-8.85-3.962-8.85-8.85v-141.796c0-4.888 3.962-8.85 8.85-8.85h-10c-4.888 0-8.85 3.962-8.85 8.85v141.796c0 4.888 3.962 8.85 8.85 8.85z" fill="#fff"/></g><g><path d="m208.901 224.178h-161.802v-11.854c0-4.888 3.962-8.85 8.85-8.85h144.102c4.888 0 8.85 3.962 8.85 8.85z" fill="#526faa"/></g><g><path d="m200.051 203.474h-10c4.888 0 8.85 3.962 8.85 8.85v11.855h10v-11.855c0-4.888-3.962-8.85-8.85-8.85z" fill="#34518c"/></g><g><path d="m55.949 203.474h10c-4.888 0-8.85 3.962-8.85 8.85v11.855h-10v-11.855c0-4.888 3.962-8.85 8.85-8.85z" fill="#708dc8"/></g><g><path d="m80.503 191.318h94.993v12.156h-94.993z" fill="#34518c"/></g><g><path d="m13 69.026c-1.104 0-2-.896-2-2v-12c0-1.104.896-2 2-2s2 .896 2 2v12c0 1.104-.896 2-2 2z" fill="#690589"/></g><g><path d="m208.901 226.178h-161.802c-1.104 0-2-.896-2-2v-11.854c0-5.983 4.867-10.85 10.85-10.85h144.102c5.983 0 10.851 4.867 10.851 10.85v11.854c-.001 1.105-.896 2-2.001 2zm-159.802-4h157.802v-9.854c0-3.777-3.073-6.85-6.851-6.85h-144.101c-3.777 0-6.85 3.073-6.85 6.85z" fill="#690589"/></g><g><path d="m175.497 205.474h-94.994c-1.104 0-2-.896-2-2v-12.155c0-1.104.896-2 2-2h94.994c1.104 0 2 .896 2 2v12.155c0 1.104-.895 2-2 2zm-92.994-4h90.994v-8.155h-90.994z" fill="#690589"/></g><g><path d="m243.15 193.318h-230.3c-5.983 0-10.85-4.867-10.85-10.85v-141.796c0-5.983 4.867-10.85 10.85-10.85h230.3c5.982 0 10.85 4.867 10.85 10.85v141.796c0 5.983-4.867 10.85-10.85 10.85zm-230.3-159.496c-3.777 0-6.85 3.073-6.85 6.85v141.796c0 3.777 3.073 6.85 6.85 6.85h230.3c3.777 0 6.85-3.073 6.85-6.85v-141.796c0-3.777-3.072-6.85-6.85-6.85z" fill="#690589"/></g><g><path d="m191.517 122.413v-21.277h-11.775c-1.368-6.688-4.008-12.909-7.643-18.415l8.337-8.337-15.046-15.046-8.337 8.337c-5.506-3.635-11.728-6.276-18.415-7.643v-11.775h-21.277v11.775c-6.688 1.368-12.909 4.008-18.415 7.643l-8.337-8.337-15.045 15.046 8.336 8.336c-3.635 5.506-6.275 11.728-7.643 18.415h-11.774v21.277h11.775c1.368 6.688 4.008 12.909 7.643 18.415l-8.337 8.337 15.046 15.045 8.337-8.337c5.507 3.635 11.728 6.275 18.415 7.643v11.775h21.277v-11.775c6.688-1.368 12.909-4.008 18.416-7.643l8.337 8.337 15.046-15.045-8.337-8.337c3.635-5.506 6.275-11.728 7.643-18.415h11.773zm-63.517 21.204c-17.586 0-31.842-14.256-31.842-31.842s14.256-31.842 31.842-31.842 31.843 14.256 31.843 31.842c-.001 17.586-14.257 31.842-31.843 31.842z" fill="#fcc24c"/></g><g><path d="m138.639 177.292h-21.277c-1.104 0-2-.896-2-2v-10.167c-5.704-1.346-11.12-3.594-16.138-6.7l-7.2 7.2c-.75.75-2.078.751-2.828 0l-15.047-15.045c-.375-.375-.586-.884-.586-1.414s.211-1.039.586-1.414l7.2-7.2c-3.106-5.018-5.354-10.433-6.7-16.138h-10.166c-1.104 0-2-.896-2-2v-21.277c0-1.104.896-2 2-2h10.167c1.346-5.705 3.594-11.12 6.7-16.138l-7.2-7.2c-.375-.375-.586-.884-.586-1.414s.211-1.039.586-1.414l15.046-15.045c.75-.75 2.078-.75 2.828 0l7.2 7.2c5.018-3.106 10.434-5.354 16.138-6.7v-10.169c0-1.104.896-2 2-2h21.277c1.104 0 2 .896 2 2v10.167c5.706 1.346 11.12 3.594 16.138 6.7l7.2-7.2c.781-.781 2.047-.781 2.828 0l15.046 15.045c.375.375.586.884.586 1.414s-.211 1.039-.586 1.414l-7.2 7.2c3.106 5.019 5.354 10.434 6.699 16.138h10.168c1.104 0 2 .896 2 2v21.277c0 1.104-.896 2-2 2h-10.168c-1.345 5.704-3.593 11.12-6.699 16.138l7.2 7.2c.375.375.586.884.586 1.414s-.211 1.039-.586 1.414l-15.046 15.045c-.781.781-2.047.781-2.828 0l-7.2-7.2c-5.018 3.105-10.433 5.354-16.138 6.7v10.167c0 1.106-.896 2.002-2 2.002zm-19.278-4h17.277v-9.774c0-.95.668-1.769 1.6-1.959 6.322-1.293 12.282-3.767 17.714-7.353.791-.524 1.844-.417 2.516.255l6.923 6.922 12.218-12.217-6.923-6.923c-.672-.671-.778-1.723-.255-2.516 3.586-5.433 6.06-11.393 7.352-17.714.19-.931 1.01-1.6 1.96-1.6h9.775v-17.277h-9.775c-.95 0-1.77-.668-1.96-1.6-1.292-6.321-3.766-12.281-7.352-17.713-.523-.793-.417-1.845.255-2.516l6.923-6.923-12.218-12.217-6.923 6.922c-.671.672-1.723.779-2.516.255-5.431-3.585-11.391-6.06-17.714-7.353-.932-.19-1.6-1.009-1.6-1.959v-9.774h-17.277v9.774c0 .95-.668 1.769-1.599 1.959-6.323 1.293-12.283 3.767-17.714 7.353-.792.524-1.844.418-2.516-.255l-6.922-6.922-12.218 12.217 6.922 6.923c.672.671.778 1.723.255 2.516-3.586 5.431-6.06 11.391-7.353 17.714-.19.931-1.009 1.599-1.959 1.599h-9.774v17.277h9.774c.95 0 1.769.668 1.959 1.599 1.293 6.323 3.767 12.283 7.353 17.714.523.793.417 1.845-.255 2.516l-6.922 6.923 12.217 12.217 6.922-6.922c.671-.672 1.723-.779 2.516-.255 5.433 3.586 11.393 6.061 17.714 7.353.931.19 1.599 1.009 1.599 1.959v9.775zm8.639-27.675c-18.661 0-33.842-15.182-33.842-33.842s15.181-33.843 33.842-33.843 33.843 15.182 33.843 33.842-15.182 33.843-33.843 33.843zm0-63.685c-16.455 0-29.842 13.387-29.842 29.842s13.387 29.842 29.842 29.842 29.843-13.387 29.843-29.842-13.388-29.842-29.843-29.842z" fill="#690589"/></g><g><path d="m170.99 76.186-5.068 5.067c-.833.833-1.019 2.134-.407 3.141 2.747 4.519 4.84 9.479 6.135 14.754.284 1.157 1.294 1.989 2.486 1.989h5.606c-1.368-6.688-4.008-12.909-7.643-18.415l8.337-8.337-15.046-15.046-3.822 3.822 9.422 9.422c.996.994.996 2.608 0 3.603z" fill="#dea42e"/></g><g><path d="m183.873 101.136h7.644v21.277h-7.644z" fill="#dea42e"/></g><g><path d="m179.743 122.413h-5.606c-1.192 0-2.202.831-2.486 1.989-1.295 5.275-3.388 10.235-6.135 14.754-.612 1.007-.426 2.308.407 3.141l5.068 5.068c.995.995.995 2.608 0 3.603l-9.422 9.422 3.822 3.822 15.046-15.046-8.337-8.337c3.635-5.507 6.275-11.728 7.643-18.416z" fill="#dea42e"/></g><g><path d="m85.009 76.186 5.068 5.067c.833.833 1.019 2.134.407 3.141-2.747 4.519-4.84 9.479-6.135 14.754-.284 1.157-1.294 1.989-2.486 1.989h-5.606c1.368-6.688 4.008-12.909 7.643-18.415l-8.337-8.337 15.046-15.046 3.822 3.822-9.422 9.422c-.995.994-.995 2.608 0 3.603z" fill="#fce06a"/></g><g><path d="m64.483 101.136h7.644v21.277h-7.644z" fill="#fce06a"/></g><g><path d="m76.257 122.413h5.606c1.192 0 2.201.831 2.486 1.989 1.295 5.275 3.388 10.235 6.135 14.754.612 1.007.426 2.308-.407 3.141l-5.068 5.068c-.995.995-.995 2.608 0 3.603l9.422 9.422-3.822 3.822-15.046-15.046 8.337-8.337c-3.635-5.507-6.275-11.728-7.643-18.416z" fill="#fce06a"/></g><g><path d="m138.639 177.292h-21.277c-1.104 0-2-.896-2-2v-10.167c-5.704-1.346-11.12-3.594-16.138-6.7l-7.2 7.2c-.75.75-2.078.751-2.828 0l-15.047-15.045c-.375-.375-.586-.884-.586-1.414s.211-1.039.586-1.414l7.2-7.2c-3.106-5.018-5.354-10.433-6.7-16.138h-10.166c-1.104 0-2-.896-2-2v-21.277c0-1.104.896-2 2-2h10.167c1.346-5.705 3.594-11.12 6.7-16.138l-7.2-7.2c-.375-.375-.586-.884-.586-1.414s.211-1.039.586-1.414l15.046-15.045c.75-.75 2.078-.75 2.828 0l7.2 7.2c5.018-3.106 10.434-5.354 16.138-6.7v-10.169c0-1.104.896-2 2-2h21.277c1.104 0 2 .896 2 2v10.167c5.706 1.346 11.12 3.594 16.138 6.7l7.2-7.2c.781-.781 2.047-.781 2.828 0l15.046 15.045c.375.375.586.884.586 1.414s-.211 1.039-.586 1.414l-7.2 7.2c3.106 5.019 5.354 10.434 6.699 16.138h10.168c1.104 0 2 .896 2 2v21.277c0 1.104-.896 2-2 2h-10.168c-1.345 5.704-3.593 11.12-6.699 16.138l7.2 7.2c.375.375.586.884.586 1.414s-.211 1.039-.586 1.414l-15.046 15.045c-.781.781-2.047.781-2.828 0l-7.2-7.2c-5.018 3.105-10.433 5.354-16.138 6.7v10.167c0 1.106-.896 2.002-2 2.002zm-19.278-4h17.277v-9.774c0-.95.668-1.769 1.6-1.959 6.322-1.293 12.282-3.767 17.714-7.353.791-.524 1.844-.417 2.516.255l6.923 6.922 12.218-12.217-6.923-6.923c-.672-.671-.778-1.723-.255-2.516 3.586-5.433 6.06-11.393 7.352-17.714.19-.931 1.01-1.6 1.96-1.6h9.775v-17.277h-9.775c-.95 0-1.77-.668-1.96-1.6-1.292-6.321-3.766-12.281-7.352-17.713-.523-.793-.417-1.845.255-2.516l6.923-6.923-12.218-12.217-6.923 6.922c-.671.672-1.723.779-2.516.255-5.431-3.585-11.391-6.06-17.714-7.353-.932-.19-1.6-1.009-1.6-1.959v-9.774h-17.277v9.774c0 .95-.668 1.769-1.599 1.959-6.323 1.293-12.283 3.767-17.714 7.353-.792.524-1.844.418-2.516-.255l-6.922-6.922-12.218 12.217 6.922 6.923c.672.671.778 1.723.255 2.516-3.586 5.431-6.06 11.391-7.353 17.714-.19.931-1.009 1.599-1.959 1.599h-9.774v17.277h9.774c.95 0 1.769.668 1.959 1.599 1.293 6.323 3.767 12.283 7.353 17.714.523.793.417 1.845-.255 2.516l-6.922 6.923 12.217 12.217 6.922-6.922c.671-.672 1.723-.779 2.516-.255 5.433 3.586 11.393 6.061 17.714 7.353.931.19 1.599 1.009 1.599 1.959v9.775zm8.639-27.675c-18.661 0-33.842-15.182-33.842-33.842s15.181-33.843 33.842-33.843 33.843 15.182 33.843 33.842-15.182 33.843-33.843 33.843zm0-63.685c-16.455 0-29.842 13.387-29.842 29.842s13.387 29.842 29.842 29.842 29.843-13.387 29.843-29.842-13.388-29.842-29.843-29.842z" fill="#690589"/></g><g><path d="m106.116 111.774c0-.852.335-1.67.934-2.277l7.56-7.668c.756-.725 1.995-.725 2.721 0 .755.756.755 1.965 0 2.721l-7.164 7.225 7.164 7.224c.755.786.755 1.965 0 2.721-.393.363-.847.544-1.33.544-.514 0-.998-.181-1.391-.544l-7.56-7.668c-.599-.607-.934-1.425-.934-2.278z" fill="#690589"/></g><g><path d="m125.038 119.966 7.406-17.623c.362-.847 1.329-1.239 2.206-.877.816.333 1.209 1.33.847 2.146l-7.406 17.653c-.272.635-.907.997-1.542.997-.181 0-.423-.03-.604-.121-.877-.331-1.27-1.329-.907-2.175z" fill="#690589"/></g><g><path d="m149.885 111.774c0 .852-.335 1.67-.934 2.277l-7.561 7.668c-.362.363-.876.544-1.359.544-.515 0-.968-.181-1.36-.544-.756-.756-.756-1.935 0-2.721l7.164-7.224-7.164-7.225c-.756-.756-.756-1.965 0-2.721.726-.725 1.965-.725 2.72 0l7.561 7.668c.597.608.933 1.426.933 2.278z" fill="#690589"/></g><g><path d="m216.125 157.821h-14.553c-1.104 0-2-.896-2-2v-88.047c0-1.104.896-2 2-2h14.553c1.104 0 2 .896 2 2s-.896 2-2 2h-12.553v84.047h12.553c1.104 0 2 .896 2 2s-.896 2-2 2z" fill="#690589"/></g><g><path d="m54.428 157.821h-14.553c-1.104 0-2-.896-2-2s.896-2 2-2h12.553v-84.047h-12.553c-1.104 0-2-.896-2-2s.896-2 2-2h14.553c1.104 0 2 .896 2 2v88.047c0 1.105-.896 2-2 2z" fill="#690589"/></g><g><path d="m63.483 113.797h-38.401c-1.104 0-2-.896-2-2s.896-2 2-2h38.401c1.104 0 2 .896 2 2s-.896 2-2 2z" fill="#690589"/></g><g><path d="m230.785 113.797h-38.268c-1.104 0-2-.896-2-2s.896-2 2-2h38.268c1.104 0 2 .896 2 2s-.895 2-2 2z" fill="#690589"/></g><g><path d="m33.547 111.798c0 4.602-3.73 8.332-8.332 8.332s-8.332-3.73-8.332-8.332 3.73-8.332 8.332-8.332 8.332 3.73 8.332 8.332z" fill="#8852a8"/></g><g><circle cx="39.973" cy="155.763" fill="#8852a8" r="8.332"/></g><g><circle cx="39.973" cy="67.833" fill="#8852a8" r="8.332"/></g><g><path d="m222.453 111.798c0 4.602 3.73 8.332 8.332 8.332s8.332-3.73 8.332-8.332-3.73-8.332-8.332-8.332-8.332 3.73-8.332 8.332z" fill="#8852a8"/></g><g><circle cx="216.027" cy="155.763" fill="#8852a8" r="8.332"/></g><g><path d="m207.695 67.833c0 4.602 3.73 8.332 8.332 8.332s8.332-3.73 8.332-8.332-3.73-8.332-8.332-8.332-8.332 3.73-8.332 8.332z" fill="#8852a8"/></g><g><path d="m25.215 122.129c-5.697 0-10.332-4.635-10.332-10.332s4.635-10.332 10.332-10.332 10.332 4.635 10.332 10.332c0 5.698-4.634 10.332-10.332 10.332zm0-16.663c-3.492 0-6.332 2.84-6.332 6.332s2.84 6.332 6.332 6.332 6.332-2.84 6.332-6.332-2.84-6.332-6.332-6.332z" fill="#690589"/></g><g><path d="m39.973 166.095c-5.697 0-10.332-4.635-10.332-10.332s4.635-10.332 10.332-10.332 10.332 4.635 10.332 10.332-4.635 10.332-10.332 10.332zm0-16.664c-3.491 0-6.332 2.84-6.332 6.332s2.84 6.332 6.332 6.332 6.332-2.84 6.332-6.332-2.841-6.332-6.332-6.332z" fill="#690589"/></g><g><path d="m39.973 78.165c-5.697 0-10.332-4.635-10.332-10.332s4.635-10.333 10.332-10.333 10.332 4.635 10.332 10.332-4.635 10.333-10.332 10.333zm0-16.665c-3.491 0-6.332 2.84-6.332 6.332s2.84 6.332 6.332 6.332 6.332-2.84 6.332-6.332-2.841-6.332-6.332-6.332z" fill="#690589"/></g><g><path d="m230.785 122.129c-5.697 0-10.332-4.635-10.332-10.332s4.635-10.332 10.332-10.332c5.696 0 10.331 4.635 10.331 10.332 0 5.698-4.635 10.332-10.331 10.332zm0-16.663c-3.491 0-6.332 2.84-6.332 6.332s2.841 6.332 6.332 6.332 6.331-2.84 6.331-6.332-2.84-6.332-6.331-6.332z" fill="#690589"/></g><g><path d="m216.027 166.095c-5.697 0-10.332-4.635-10.332-10.332s4.635-10.332 10.332-10.332c5.696 0 10.331 4.635 10.331 10.332s-4.634 10.332-10.331 10.332zm0-16.664c-3.491 0-6.332 2.84-6.332 6.332s2.841 6.332 6.332 6.332 6.331-2.84 6.331-6.332-2.839-6.332-6.331-6.332z" fill="#690589"/></g><g><path d="m216.027 78.165c-5.697 0-10.332-4.635-10.332-10.332s4.635-10.333 10.332-10.333 10.332 4.635 10.332 10.332-4.634 10.333-10.332 10.333zm0-16.665c-3.491 0-6.332 2.84-6.332 6.332s2.841 6.332 6.332 6.332 6.332-2.84 6.332-6.332-2.84-6.332-6.332-6.332z" fill="#690589"/></g></g></svg>